<?xml version="1.0" standalone="no"?>
<!DOCTYPE svg PUBLIC "-//W3C//DTD SVG 20010904//EN"
 "http://www.w3.org/TR/2001/REC-SVG-20010904/DTD/svg10.dtd">
<svg version="1.0" xmlns="http://www.w3.org/2000/svg"
 width="1070.000000pt" height="1070.000000pt" viewBox="0 0 1070.000000 1070.000000"
 preserveAspectRatio="xMidYMid meet">
<g transform="translate(0.000000,1070.000000) scale(0.100000,-0.100000)"
fill="#000000" stroke="none">
<path d="M5177 10614 c-1 -1 -58 -4 -127 -8 -157 -8 -317 -22 -370 -31 -8 -1
-40 -6 -70 -10 -30 -3 -95 -13 -145 -22 -49 -8 -99 -17 -110 -18 -11 -2 -65
-13 -120 -25 -547 -119 -1099 -334 -1557 -605 -9 -5 -41 -24 -71 -42 -45 -26
-175 -111 -277 -180 -128 -87 -364 -274 -485 -383 -90 -81 -390 -383 -466
-470 -99 -111 -217 -260 -311 -390 -80 -111 -228 -335 -228 -345 0 -4 -13 -25
-28 -48 -84 -123 -210 -378 -362 -732 -75 -174 -220 -645 -254 -825 -3 -14
-10 -50 -16 -80 -21 -109 -49 -276 -55 -334 -3 -33 -8 -62 -9 -65 -2 -3 -7
-44 -11 -91 -3 -47 -8 -101 -10 -120 -15 -162 -21 -534 -10 -715 7 -124 16
-239 20 -265 2 -14 7 -47 10 -75 3 -27 7 -70 10 -95 8 -64 44 -272 61 -355 9
-38 18 -81 20 -95 3 -14 7 -33 10 -42 3 -9 7 -25 9 -35 2 -10 15 -61 30 -113
14 -52 28 -103 30 -112 12 -53 134 -409 155 -453 5 -11 26 -60 46 -110 54
-135 201 -433 289 -585 235 -408 497 -750 840 -1094 136 -137 273 -262 390
-356 44 -36 82 -67 85 -70 13 -13 204 -153 290 -212 446 -306 966 -549 1510
-707 94 -27 321 -83 382 -95 13 -2 50 -9 83 -15 33 -6 69 -13 80 -15 53 -10
211 -33 295 -42 30 -3 69 -7 85 -9 204 -26 911 -26 1044 0 11 2 48 6 83 9 34
3 72 8 84 10 12 2 45 7 74 11 29 4 62 9 74 11 11 2 38 6 61 10 68 10 315 63
415 90 649 173 1193 427 1735 808 55 39 109 78 120 87 11 9 70 56 130 104 61
49 126 103 145 120 19 18 67 61 105 95 88 79 279 272 367 371 387 433 691 911
921 1449 73 171 170 433 182 490 0 3 10 37 22 75 45 144 113 437 138 585 3 19
10 60 15 90 5 30 12 74 15 98 3 23 7 59 10 80 7 52 13 113 20 212 4 47 8 108
10 135 5 70 5 496 0 574 -4 77 -15 215 -19 256 -7 63 -28 229 -32 248 -2 12
-6 39 -10 62 -12 85 -44 249 -64 333 -12 48 -23 94 -25 102 -8 40 -29 115 -61
220 -187 612 -448 1133 -820 1636 -51 68 -239 302 -253 314 -3 3 -26 28 -50
55 -105 119 -321 333 -461 456 -168 147 -442 355 -601 454 -318 199 -593 340
-915 471 -70 28 -406 146 -442 155 -14 3 -28 7 -107 29 -44 12 -100 26 -125
30 -25 5 -68 16 -97 24 -29 8 -65 17 -80 20 -15 2 -66 12 -113 21 -47 8 -101
18 -120 21 -19 2 -46 7 -60 9 -110 20 -315 42 -478 51 -95 6 -470 12 -475 8z
m523 -258 c19 -2 69 -7 110 -11 41 -3 92 -8 113 -10 20 -3 56 -7 80 -10 108
-13 388 -64 472 -87 22 -5 47 -11 55 -13 184 -37 603 -181 863 -297 102 -46
364 -179 415 -212 24 -15 51 -30 60 -34 27 -12 86 -49 242 -153 802 -535 1434
-1287 1819 -2167 23 -51 41 -99 41 -107 0 -7 3 -15 8 -17 21 -9 177 -485 226
-688 22 -93 37 -161 42 -190 2 -14 7 -35 9 -48 8 -34 32 -179 40 -237 4 -27 8
-61 10 -75 3 -23 12 -105 21 -185 26 -250 22 -761 -9 -1005 -3 -25 -9 -70 -12
-100 -6 -53 -49 -313 -59 -355 -2 -11 -12 -54 -21 -95 -51 -241 -180 -643
-273 -851 -11 -24 -32 -73 -47 -109 -41 -95 -195 -394 -243 -473 -23 -37 -42
-70 -42 -73 0 -2 -5 -10 -10 -17 -6 -7 -32 -46 -58 -87 -51 -81 -73 -114 -170
-247 -209 -286 -424 -523 -736 -808 -6 -6 -36 -30 -66 -55 -30 -25 -57 -47
-60 -51 -10 -13 -205 -162 -298 -228 -424 -303 -970 -566 -1468 -710 -148 -42
-280 -77 -329 -85 -16 -3 -45 -10 -63 -15 -18 -5 -35 -10 -37 -10 -6 1 -77
-11 -110 -17 -11 -2 -49 -9 -85 -14 -36 -6 -76 -13 -89 -15 -14 -2 -52 -7 -85
-10 -34 -4 -72 -8 -86 -10 -22 -3 -107 -10 -250 -21 -147 -11 -602 -4 -720 11
-19 2 -64 7 -100 10 -55 5 -238 31 -360 51 -55 9 -352 74 -385 84 -16 5 -70
21 -120 36 -386 113 -728 257 -1075 454 -199 113 -481 302 -615 411 -80 66
-227 189 -260 218 -69 62 -337 333 -403 407 -415 472 -733 1004 -950 1589
-169 456 -274 961 -299 1445 -12 229 -6 623 12 755 2 16 7 55 10 85 3 30 8 75
11 100 20 186 91 525 156 745 99 340 278 768 434 1042 62 109 152 254 214 348
62 93 245 344 259 355 4 3 29 32 56 65 124 149 366 401 489 510 283 251 588
471 897 647 106 61 369 192 469 233 36 15 84 36 107 46 23 10 48 19 55 19 8 0
18 4 23 8 6 5 39 19 75 31 36 13 74 27 85 31 94 39 486 148 630 175 11 2 34 7
50 10 17 3 39 7 50 9 11 2 34 6 50 9 17 3 50 9 75 12 24 4 47 8 50 10 3 2 32
6 65 10 68 7 136 14 180 20 17 2 82 7 145 10 63 4 116 8 118 10 5 4 563 -3
602 -9z"/>
<path d="M5088 10025 c-2 -2 -46 -6 -98 -9 -52 -3 -129 -10 -170 -16 -41 -5
-99 -12 -129 -15 -30 -4 -63 -9 -75 -11 -12 -2 -39 -7 -61 -9 -22 -3 -47 -8
-55 -10 -8 -2 -31 -7 -50 -10 -87 -15 -315 -71 -452 -111 -1167 -347 -2159
-1146 -2757 -2224 -155 -280 -324 -692 -407 -995 -24 -88 -82 -344 -89 -390
-3 -22 -8 -47 -11 -56 -2 -9 -7 -34 -9 -55 -6 -39 -12 -82 -20 -124 -2 -14 -7
-54 -11 -90 -3 -36 -8 -78 -10 -95 -31 -270 -20 -807 23 -1085 4 -25 7 -49 8
-55 3 -28 17 -115 25 -155 6 -25 12 -56 14 -70 18 -101 65 -290 106 -425 12
-38 24 -79 27 -90 2 -11 8 -29 13 -40 4 -11 18 -49 31 -85 114 -329 291 -687
488 -990 52 -80 187 -271 223 -315 58 -71 178 -216 208 -250 78 -89 332 -336
436 -425 145 -124 139 -119 268 -214 568 -421 1190 -696 1891 -835 55 -11 120
-22 145 -26 25 -3 72 -10 105 -15 97 -14 214 -26 359 -36 79 -5 521 -5 576 0
19 2 78 7 130 11 52 4 97 8 100 10 3 1 34 6 70 10 93 9 132 16 315 51 497 95
1019 295 1465 560 185 110 427 277 555 382 151 125 225 192 370 337 151 151
195 198 291 315 322 389 561 792 751 1265 25 61 46 115 47 120 1 6 4 15 8 20
12 20 81 245 124 403 23 86 66 283 79 362 3 19 7 46 10 60 13 72 30 203 39
305 17 186 19 239 19 435 1 265 -9 419 -38 640 -3 19 -8 57 -11 84 -5 42 -74
384 -88 439 -48 184 -156 513 -206 622 -5 11 -21 49 -35 85 -48 117 -193 397
-283 547 -157 261 -337 506 -531 722 -104 116 -362 367 -461 447 -19 16 -37
31 -40 35 -12 14 -263 201 -350 261 -268 184 -603 361 -924 488 -147 58 -466
159 -584 185 -9 2 -57 13 -107 24 -112 25 -123 27 -270 51 -125 20 -164 25
-281 35 -38 4 -85 9 -104 12 -38 5 -597 13 -602 8z m-83 -1570 c35 -21 56 -45
74 -80 l26 -49 0 -3391 c0 -1864 -4 -3405 -8 -3424 -37 -159 -204 -255 -353
-204 -80 27 -151 113 -172 208 -5 23 -9 1420 -9 3228 0 1753 -3 3190 -7 3194
-4 5 -454 8 -999 8 l-992 1 -51 27 c-95 48 -149 144 -146 259 2 107 53 187
149 234 l48 23 1196 -2 1196 -2 48 -30z m3120 20 c90 -26 153 -97 171 -190 27
-135 -26 -251 -141 -310 l-58 -30 -988 0 c-543 0 -990 -3 -994 -7 -3 -3 -7
-1450 -9 -3215 -2 -2662 -4 -3214 -15 -3245 -23 -61 -82 -130 -136 -157 -39
-21 -63 -26 -116 -25 -113 1 -195 55 -247 164 l-27 55 -2 3389 c-1 2779 1
3397 12 3433 20 67 57 109 117 132 52 19 76 20 1218 20 1001 1 1173 -1 1215
-14z"/>
<path d="M10 6964 c-6 -14 -10 -44 -9 -67 l1 -42 12 40 c23 73 27 95 16 95 -6
0 -15 -12 -20 -26z"/>
</g>
</svg>
